<svg id="Layer_1" data-name="Layer 1" xmlns="http://www.w3.org/2000/svg" viewBox="0 0 889.54826 205.91743"><defs><style>.cls-1,.cls-2{fill:#fff;}.cls-1{stroke:#231f20;stroke-miterlimit:10;}.cls-2{font-size:157.10365px;font-family:MyriadPro-Regular, Myriad Pro;letter-spacing:-0.00299em;}.cls-3{letter-spacing:0em;}</style></defs><path class="cls-1" d="M134.5,499.42085" transform="translate(287.5 -294.00342)"/><polygon class="cls-1" points="277.613 9.707 277.613 174.417 314.113 174.417 889.048 174.417 889.048 205.417 314.113 205.417 277.613 205.417 246.613 205.417 246.613 9.707 277.613 9.707"/><polygon class="cls-1" points="222.5 68.128 222.5 205.417 191.5 205.417 191.5 68.128 191.5 40.707 127 40.707 127 68.128 127 205.417 96 205.417 96 68.128 96 40.707 31.5 40.707 31.5 68.128 31.5 205.417 0.5 205.417 0.5 68.128 0.5 40.707 0.5 9.707 222.5 9.707 222.5 40.707 222.5 68.128"/><text class="cls-2" transform="translate(294.69385 131.49658)">A<tspan class="cls-3" x="95.67773" y="0">nalytics</tspan></text></svg>